<svg width="323" height="323" viewBox="0 0 323 323" fill="none" xmlns="http://www.w3.org/2000/svg">
<path d="M0 9.99999C0 4.47714 4.47715 0 10 0H313C318.523 0 323 4.47715 323 10V313C323 318.523 318.523 323 313 323H9.99999C4.47714 323 0 318.523 0 313V9.99999Z" fill="#0045FF"/>
<path d="M31.596 149.728C28.9267 149.728 26.5 149.277 24.316 148.376C22.132 147.44 20.3467 146.105 18.96 144.372L24.576 137.716C26.5173 140.247 28.6147 141.512 30.868 141.512C32.3587 141.512 33.4853 141.061 34.248 140.16C35.0453 139.259 35.444 137.941 35.444 136.208V120.556H22.86V112.6H45.636V135.584C45.636 140.299 44.44 143.835 42.048 146.192C39.6907 148.549 36.2067 149.728 31.596 149.728ZM64.1293 120.348C68.8093 120.348 72.38 121.423 74.8413 123.572C77.3026 125.687 78.5333 128.945 78.5333 133.348V149H69.3293V145.36C67.908 148.099 65.1346 149.468 61.0093 149.468C58.8253 149.468 56.936 149.087 55.3413 148.324C53.7466 147.561 52.5333 146.539 51.7013 145.256C50.904 143.939 50.5053 142.448 50.5053 140.784C50.5053 138.115 51.528 136.052 53.5733 134.596C55.6186 133.105 58.7733 132.36 63.0373 132.36H68.6533C68.48 129.379 66.4866 127.888 62.6733 127.888C61.3213 127.888 59.952 128.113 58.5653 128.564C57.1786 128.98 56 129.569 55.0293 130.332L51.7013 123.624C53.2613 122.584 55.1506 121.787 57.3693 121.232C59.6226 120.643 61.876 120.348 64.1293 120.348ZM63.7653 143.228C64.9093 143.228 65.9146 142.951 66.7813 142.396C67.648 141.841 68.272 141.027 68.6533 139.952V137.508H64.3893C61.512 137.508 60.0733 138.461 60.0733 140.368C60.0733 141.235 60.4026 141.928 61.0613 142.448C61.72 142.968 62.6213 143.228 63.7653 143.228ZM113.954 120.816L102.306 149H92.1138L80.5178 120.816H90.6578L97.4178 138.028L104.542 120.816H113.954ZM127.555 120.348C132.235 120.348 135.806 121.423 138.267 123.572C140.728 125.687 141.959 128.945 141.959 133.348V149H132.755V145.36C131.334 148.099 128.56 149.468 124.435 149.468C122.251 149.468 120.362 149.087 118.767 148.324C117.172 147.561 115.959 146.539 115.127 145.256C114.33 143.939 113.931 142.448 113.931 140.784C113.931 138.115 114.954 136.052 116.999 134.596C119.044 133.105 122.199 132.36 126.463 132.36H132.079C131.906 129.379 129.912 127.888 126.099 127.888C124.747 127.888 123.378 128.113 121.991 128.564C120.604 128.98 119.426 129.569 118.455 130.332L115.127 123.624C116.687 122.584 118.576 121.787 120.795 121.232C123.048 120.643 125.302 120.348 127.555 120.348ZM127.191 143.228C128.335 143.228 129.34 142.951 130.207 142.396C131.074 141.841 131.698 141.027 132.079 139.952V137.508H127.815C124.938 137.508 123.499 138.461 123.499 140.368C123.499 141.235 123.828 141.928 124.487 142.448C125.146 142.968 126.047 143.228 127.191 143.228ZM161.455 149.728C158.509 149.728 155.649 149.364 152.875 148.636C150.102 147.908 147.849 146.937 146.115 145.724L149.495 138.132C151.125 139.207 153.014 140.073 155.163 140.732C157.313 141.391 159.427 141.72 161.507 141.72C165.459 141.72 167.435 140.732 167.435 138.756C167.435 137.716 166.863 136.953 165.719 136.468C164.61 135.948 162.807 135.411 160.311 134.856C157.573 134.267 155.285 133.643 153.447 132.984C151.61 132.291 150.033 131.199 148.715 129.708C147.398 128.217 146.739 126.207 146.739 123.676C146.739 121.457 147.346 119.464 148.559 117.696C149.773 115.893 151.575 114.472 153.967 113.432C156.394 112.392 159.358 111.872 162.859 111.872C165.251 111.872 167.609 112.149 169.931 112.704C172.254 113.224 174.299 114.004 176.067 115.044L172.895 122.688C169.429 120.816 166.066 119.88 162.807 119.88C160.762 119.88 159.271 120.192 158.335 120.816C157.399 121.405 156.931 122.185 156.931 123.156C156.931 124.127 157.486 124.855 158.595 125.34C159.705 125.825 161.49 126.328 163.951 126.848C166.725 127.437 169.013 128.079 170.815 128.772C172.653 129.431 174.23 130.505 175.547 131.996C176.899 133.452 177.575 135.445 177.575 137.976C177.575 140.16 176.969 142.136 175.755 143.904C174.542 145.672 172.722 147.093 170.295 148.168C167.869 149.208 164.922 149.728 161.455 149.728ZM196.267 149.468C193.147 149.468 190.357 148.844 187.895 147.596C185.434 146.348 183.51 144.615 182.123 142.396C180.771 140.177 180.095 137.664 180.095 134.856C180.095 132.048 180.771 129.552 182.123 127.368C183.51 125.149 185.434 123.433 187.895 122.22C190.357 120.972 193.147 120.348 196.267 120.348C199.457 120.348 202.213 121.041 204.535 122.428C206.858 123.78 208.505 125.669 209.475 128.096L201.831 131.996C200.549 129.465 198.677 128.2 196.215 128.2C194.447 128.2 192.974 128.789 191.795 129.968C190.651 131.147 190.079 132.776 190.079 134.856C190.079 136.971 190.651 138.635 191.795 139.848C192.974 141.027 194.447 141.616 196.215 141.616C198.677 141.616 200.549 140.351 201.831 137.82L209.475 141.72C208.505 144.147 206.858 146.053 204.535 147.44C202.213 148.792 199.457 149.468 196.267 149.468ZM222.607 124.196C223.613 122.913 224.913 121.96 226.507 121.336C228.137 120.677 229.991 120.348 232.071 120.348V129.24C231.17 129.136 230.425 129.084 229.835 129.084C227.721 129.084 226.057 129.656 224.843 130.8C223.665 131.944 223.075 133.695 223.075 136.052V149H213.195V120.816H222.607V124.196ZM236.149 120.816H246.029V149H236.149V120.816ZM241.089 117.696C239.286 117.696 237.83 117.193 236.721 116.188C235.611 115.183 235.057 113.935 235.057 112.444C235.057 110.953 235.611 109.705 236.721 108.7C237.83 107.695 239.286 107.192 241.089 107.192C242.891 107.192 244.347 107.677 245.457 108.648C246.566 109.584 247.121 110.797 247.121 112.288C247.121 113.848 246.566 115.148 245.457 116.188C244.347 117.193 242.891 117.696 241.089 117.696ZM270.181 120.348C272.747 120.348 275.069 120.955 277.149 122.168C279.264 123.347 280.928 125.045 282.141 127.264C283.389 129.448 284.013 131.996 284.013 134.908C284.013 137.82 283.389 140.385 282.141 142.604C280.928 144.788 279.264 146.487 277.149 147.7C275.069 148.879 272.747 149.468 270.181 149.468C266.888 149.468 264.271 148.48 262.329 146.504V159.088H252.449V120.816H261.861V123.624C263.699 121.44 266.472 120.348 270.181 120.348ZM268.101 141.616C269.835 141.616 271.256 141.027 272.365 139.848C273.475 138.635 274.029 136.988 274.029 134.908C274.029 132.828 273.475 131.199 272.365 130.02C271.256 128.807 269.835 128.2 268.101 128.2C266.368 128.2 264.947 128.807 263.837 130.02C262.728 131.199 262.173 132.828 262.173 134.908C262.173 136.988 262.728 138.635 263.837 139.848C264.947 141.027 266.368 141.616 268.101 141.616ZM308.054 147.856C307.222 148.376 306.199 148.775 304.986 149.052C303.807 149.329 302.542 149.468 301.19 149.468C297.515 149.468 294.69 148.567 292.714 146.764C290.738 144.961 289.75 142.275 289.75 138.704V129.24H285.642V121.856H289.75V114.524H299.63V121.856H306.078V129.24H299.63V138.6C299.63 139.605 299.89 140.403 300.41 140.992C300.964 141.547 301.692 141.824 302.594 141.824C303.738 141.824 304.743 141.529 305.61 140.94L308.054 147.856ZM33.936 183.556V191.564H50.004V199.52H33.936V212H23.64V175.6H52.188V183.556H33.936ZM67.9379 183.348C72.6179 183.348 76.1886 184.423 78.6499 186.572C81.1112 188.687 82.3419 191.945 82.3419 196.348V212H73.1379V208.36C71.7166 211.099 68.9432 212.468 64.8179 212.468C62.6339 212.468 60.7446 212.087 59.1499 211.324C57.5552 210.561 56.3419 209.539 55.5099 208.256C54.7126 206.939 54.3139 205.448 54.3139 203.784C54.3139 201.115 55.3366 199.052 57.3819 197.596C59.4272 196.105 62.5819 195.36 66.8459 195.36H72.4619C72.2886 192.379 70.2952 190.888 66.4819 190.888C65.1299 190.888 63.7606 191.113 62.3739 191.564C60.9872 191.98 59.8086 192.569 58.8379 193.332L55.5099 186.624C57.0699 185.584 58.9592 184.787 61.1779 184.232C63.4312 183.643 65.6846 183.348 67.9379 183.348ZM67.5739 206.228C68.7179 206.228 69.7232 205.951 70.5899 205.396C71.4566 204.841 72.0806 204.027 72.4619 202.952V200.508H68.1979C65.3206 200.508 63.8819 201.461 63.8819 203.368C63.8819 204.235 64.2112 204.928 64.8699 205.448C65.5286 205.968 66.4299 206.228 67.5739 206.228ZM98.8223 212.468C96.4649 212.468 94.1423 212.208 91.8543 211.688C89.5663 211.133 87.7289 210.423 86.3423 209.556L89.3063 202.796C90.5889 203.593 92.1143 204.235 93.8823 204.72C95.6503 205.171 97.4009 205.396 99.1342 205.396C100.729 205.396 101.856 205.24 102.514 204.928C103.208 204.581 103.554 204.096 103.554 203.472C103.554 202.848 103.138 202.415 102.306 202.172C101.509 201.895 100.226 201.635 98.4583 201.392C96.2049 201.115 94.2809 200.751 92.6863 200.3C91.1263 199.849 89.7743 199.017 88.6303 197.804C87.4863 196.591 86.9143 194.892 86.9143 192.708C86.9143 190.905 87.4516 189.311 88.5263 187.924C89.6009 186.503 91.1609 185.393 93.2063 184.596C95.2863 183.764 97.7649 183.348 100.642 183.348C102.688 183.348 104.716 183.556 106.726 183.972C108.737 184.388 110.418 184.977 111.77 185.74L108.806 192.448C106.31 191.061 103.606 190.368 100.694 190.368C99.1343 190.368 97.9903 190.559 97.2623 190.94C96.5343 191.287 96.1703 191.755 96.1703 192.344C96.1703 193.003 96.5689 193.471 97.3663 193.748C98.1636 193.991 99.4809 194.251 101.318 194.528C103.641 194.875 105.565 195.273 107.09 195.724C108.616 196.175 109.933 197.007 111.042 198.22C112.186 199.399 112.758 201.063 112.758 203.212C112.758 204.98 112.221 206.575 111.146 207.996C110.072 209.383 108.477 210.475 106.362 211.272C104.282 212.069 101.769 212.468 98.8223 212.468ZM135.372 183.348C138.873 183.348 141.681 184.388 143.796 186.468C145.945 188.548 147.02 191.685 147.02 195.88V212H137.14V197.492C137.14 193.644 135.597 191.72 132.512 191.72C130.813 191.72 129.444 192.275 128.404 193.384C127.398 194.493 126.896 196.157 126.896 198.376V212H117.016V173.416H126.896V186.416C127.97 185.411 129.236 184.648 130.692 184.128C132.148 183.608 133.708 183.348 135.372 183.348ZM153.223 183.816H163.103V212H153.223V183.816ZM158.163 180.696C156.36 180.696 154.904 180.193 153.795 179.188C152.685 178.183 152.131 176.935 152.131 175.444C152.131 173.953 152.685 172.705 153.795 171.7C154.904 170.695 156.36 170.192 158.163 170.192C159.965 170.192 161.421 170.677 162.531 171.648C163.64 172.584 164.195 173.797 164.195 175.288C164.195 176.848 163.64 178.148 162.531 179.188C161.421 180.193 159.965 180.696 158.163 180.696ZM183.668 212.468C180.652 212.468 177.93 211.844 175.504 210.596C173.077 209.348 171.17 207.615 169.784 205.396C168.432 203.177 167.756 200.664 167.756 197.856C167.756 195.083 168.432 192.587 169.784 190.368C171.17 188.149 173.06 186.433 175.452 185.22C177.878 183.972 180.617 183.348 183.668 183.348C186.718 183.348 189.457 183.972 191.884 185.22C194.31 186.433 196.2 188.149 197.552 190.368C198.904 192.552 199.58 195.048 199.58 197.856C199.58 200.664 198.904 203.177 197.552 205.396C196.2 207.615 194.31 209.348 191.884 210.596C189.457 211.844 186.718 212.468 183.668 212.468ZM183.668 204.616C185.401 204.616 186.822 204.027 187.932 202.848C189.041 201.635 189.596 199.971 189.596 197.856C189.596 195.776 189.041 194.147 187.932 192.968C186.822 191.789 185.401 191.2 183.668 191.2C181.934 191.2 180.513 191.789 179.404 192.968C178.294 194.147 177.74 195.776 177.74 197.856C177.74 199.971 178.294 201.635 179.404 202.848C180.513 204.027 181.934 204.616 183.668 204.616ZM222.512 183.348C226.014 183.348 228.822 184.388 230.936 186.468C233.086 188.548 234.16 191.685 234.16 195.88V212H224.28V197.492C224.28 193.644 222.738 191.72 219.652 191.72C217.954 191.72 216.584 192.275 215.544 193.384C214.539 194.493 214.036 196.157 214.036 198.376V212H204.156V183.816H213.568V186.884C214.678 185.74 215.995 184.873 217.52 184.284C219.046 183.66 220.71 183.348 222.512 183.348Z" fill="white"/>
</svg>
